<?xml version="1.0" encoding="utf-8"?>
<!-- Generator: Adobe Illustrator 22.1.0, SVG Export Plug-In . SVG Version: 6.00 Build 0)  -->
<svg version="1.1" id="Ebene_1" xmlns="http://www.w3.org/2000/svg" xmlns:xlink="http://www.w3.org/1999/xlink" x="0px" y="0px"
	 viewBox="0 0 190.3 90" style="enable-background:new 0 0 190.3 90;" xml:space="preserve">
<style type="text/css">
	.st0{fill:#004F9A;}
	.st1{fill:#FFFFFF;}
	.st2{enable-background:new    ;}
</style>
<g>
	<rect x="100.3" class="st0" width="90" height="90"/>
	<path class="st1" d="M119.4,67.5h4.3V57.2h2.6v-2.8h-2.6v-0.6c0-1.2,0.6-1.3,1.6-1.3c0.4,0,0.8,0,1.2,0.1v-3
		c-0.7,0-1.4-0.1-2.1-0.1c-3.7,0-5,1.2-5,4.9h-2.1v2.8h2.1V67.5z M129.7,67.5h4.3v-7.1c0-1.4,0.7-2.8,2.3-2.8c2.3,0,2.1,1.8,2.1,3.6
		v6.3h4.3v-8.4c0-1.9-0.4-5.1-4.7-5.1c-1.6,0-3.3,0.8-4,2.2h0v-6.7h-4.3V67.5z M147.5,67.5h4.1l3.8-18h-4.1L147.5,67.5z M156.5,67.5
		h4.1l3.8-18h-4.1L156.5,67.5z M165.5,67.5h4.1l3.8-18h-4.1L165.5,67.5z M107,67.5h4.1l3.8-18h-4.1L107,67.5z M129.4,79
		c0.1,1.6,1.5,2.2,2.9,2.2s2.8-0.5,2.8-2.1c0-1.1-1-1.5-2-1.7s-1.9-0.3-1.9-0.9c0-0.5,0.6-0.6,0.9-0.6c0.6,0,1.1,0.2,1.2,0.8h1.6
		c-0.1-1.5-1.4-2-2.7-2s-2.7,0.4-2.7,2c0,1.1,1,1.4,2,1.6c1.2,0.3,1.9,0.4,1.9,1s-0.6,0.8-1.1,0.8c-0.7,0-1.3-0.3-1.3-1h-1.6V79z
		 M138.5,73h-1.7v1.8h-1v1.1h1v3.6c0,1.2,0.9,1.5,1.9,1.5c0.3,0,0.7,0,1-0.1v-1.3c-0.2,0-0.3,0-0.5,0c-0.6,0-0.7-0.1-0.7-0.7v-3h1.2
		v-1.1h-1.2V73z M141.1,81h1.9v-1.8h-1.9V81z M145.7,83.1h1.7v-2.9l0,0c0.4,0.6,1.1,0.9,1.8,0.9c1.8,0,2.7-1.5,2.7-3.2
		c0-1.8-0.9-3.3-2.8-3.3c-0.8,0-1.4,0.3-1.8,1l0,0v-0.8h-1.6L145.7,83.1L145.7,83.1z M148.8,79.9c-1.1,0-1.5-1-1.5-2s0.4-2,1.5-2
		s1.5,1,1.5,2S149.9,79.9,148.8,79.9z M153,77.9c0,2,1.2,3.2,3.2,3.2c1.9,0,3.2-1.3,3.2-3.2c0-2-1.3-3.3-3.2-3.3
		C154.3,74.7,153,75.9,153,77.9z M154.2,73.9h1.6v-1.4h-1.6V73.9z M154.7,77.9c0-1,0.3-2,1.5-2s1.5,1,1.5,2s-0.3,2-1.5,2
		C155.1,79.9,154.7,78.9,154.7,77.9z M156.6,73.9h1.6v-1.4h-1.6V73.9z M160.7,81h1.7v-8.5h-1.7V81z M166.1,73h-1.7v1.8h-1v1.1h1v3.6
		c0,1.2,0.9,1.5,1.9,1.5c0.3,0,0.7,0,1-0.1v-1.3c-0.2,0-0.3,0-0.5,0c-0.6,0-0.7-0.1-0.7-0.7v-3h1.2v-1.1h-1.2V73z M174.2,78.3
		c0.1-1.9-0.9-3.7-3-3.7c-1.9,0-3.1,1.4-3.1,3.3s1.2,3.2,3.1,3.2c1.4,0,2.4-0.6,2.9-2.1h-1.5c-0.1,0.4-0.7,0.8-1.3,0.8
		c-0.9,0-1.5-0.5-1.5-1.6L174.2,78.3L174.2,78.3z M169.8,77.2c0-0.5,0.3-1.3,1.4-1.3c0.8,0,1.2,0.5,1.3,1.3H169.8z M175.5,81h1.7
		v-3.2c0-1.3,0.4-1.8,1.3-1.8c0.8,0,1.1,0.5,1.1,1.5V81h1.7v-3.8c0-1.5-0.5-2.5-2.3-2.5c-0.7,0-1.5,0.3-1.9,1l0,0v-0.9h-1.6V81z"/>
	<g class="st2">
		<path class="st0" d="M2.5,55.1v2.6h0c0.5-1,1.1-1.8,1.8-2.2C5.1,55,6,54.8,7.1,54.8V57c-0.8,0-1.5,0.1-2.1,0.3
			c-0.6,0.2-1,0.6-1.4,1c-0.4,0.4-0.6,1-0.8,1.6c-0.2,0.6-0.2,1.3-0.2,2.1v5.5h-2V55.1H2.5z"/>
		<path class="st0" d="M17,66.7c-0.9,0.7-2.1,1.1-3.5,1.1c-1,0-1.9-0.2-2.6-0.5c-0.7-0.3-1.3-0.8-1.8-1.3c-0.5-0.6-0.9-1.3-1.1-2.1
			c-0.2-0.8-0.4-1.7-0.4-2.6c0-0.9,0.1-1.8,0.4-2.6s0.7-1.5,1.2-2s1.1-1,1.8-1.3s1.5-0.5,2.3-0.5c1.1,0,2,0.2,2.7,0.7s1.3,1,1.8,1.7
			c0.4,0.7,0.7,1.5,0.9,2.3s0.2,1.6,0.2,2.4H9.7c0,0.5,0,1.1,0.2,1.5s0.4,0.9,0.7,1.3c0.3,0.4,0.7,0.7,1.2,0.9
			c0.5,0.2,1.1,0.3,1.8,0.3c0.9,0,1.6-0.2,2.1-0.6c0.6-0.4,0.9-1,1.1-1.8h2C18.5,64.9,17.9,66,17,66.7z M16.5,58.7
			c-0.2-0.4-0.4-0.8-0.7-1.1c-0.3-0.3-0.7-0.6-1.1-0.7c-0.4-0.2-0.9-0.3-1.4-0.3c-0.5,0-1,0.1-1.4,0.3c-0.4,0.2-0.8,0.4-1.1,0.8
			c-0.3,0.3-0.5,0.7-0.7,1.1c-0.2,0.4-0.3,0.9-0.3,1.4h7.1C16.8,59.6,16.7,59.2,16.5,58.7z"/>
		<path class="st0" d="M22.7,64.7c0.2,0.3,0.4,0.6,0.8,0.7c0.3,0.2,0.7,0.3,1.1,0.4c0.4,0.1,0.8,0.1,1.2,0.1c0.3,0,0.7,0,1-0.1
			s0.7-0.1,1-0.3c0.3-0.1,0.5-0.3,0.7-0.6s0.3-0.6,0.3-0.9c0-0.5-0.2-0.9-0.6-1.2c-0.4-0.3-0.9-0.5-1.5-0.7s-1.3-0.3-2-0.5
			s-1.4-0.3-2-0.6s-1.1-0.6-1.5-1s-0.6-1.1-0.6-1.9c0-0.6,0.1-1.2,0.4-1.6c0.3-0.4,0.6-0.8,1.1-1.1c0.4-0.3,0.9-0.5,1.5-0.6
			c0.6-0.1,1.1-0.2,1.6-0.2c0.7,0,1.4,0.1,1.9,0.2c0.6,0.1,1.1,0.3,1.6,0.6c0.5,0.3,0.8,0.7,1.1,1.2c0.3,0.5,0.4,1.1,0.5,1.9h-2
			c0-0.4-0.1-0.7-0.3-1c-0.2-0.3-0.4-0.5-0.7-0.6c-0.3-0.2-0.6-0.3-0.9-0.3c-0.3-0.1-0.7-0.1-1-0.1c-0.3,0-0.6,0-0.9,0.1
			s-0.6,0.1-0.9,0.3c-0.3,0.1-0.5,0.3-0.6,0.5c-0.2,0.2-0.2,0.5-0.2,0.8c0,0.4,0.1,0.6,0.4,0.9c0.2,0.2,0.6,0.4,0.9,0.6
			c0.4,0.2,0.8,0.3,1.3,0.4c0.5,0.1,1,0.2,1.4,0.3c0.5,0.1,1,0.2,1.5,0.4c0.5,0.2,0.9,0.4,1.3,0.6c0.4,0.3,0.7,0.6,0.9,1
			c0.2,0.4,0.3,0.9,0.3,1.5c0,0.8-0.2,1.4-0.5,1.9s-0.7,0.9-1.2,1.2s-1.1,0.5-1.7,0.6c-0.6,0.1-1.3,0.2-1.9,0.2
			c-0.7,0-1.3-0.1-2-0.2c-0.6-0.1-1.2-0.4-1.7-0.7c-0.5-0.3-0.9-0.8-1.2-1.3s-0.4-1.2-0.5-2h2C22.4,64,22.5,64.4,22.7,64.7z"/>
		<path class="st0" d="M41.9,66.7c-0.9,0.7-2.1,1.1-3.5,1.1c-1,0-1.9-0.2-2.6-0.5c-0.7-0.3-1.3-0.8-1.8-1.3
			c-0.5-0.6-0.9-1.3-1.1-2.1c-0.2-0.8-0.4-1.7-0.4-2.6c0-0.9,0.1-1.8,0.4-2.6s0.7-1.5,1.2-2s1.1-1,1.8-1.3s1.5-0.5,2.3-0.5
			c1.1,0,2,0.2,2.7,0.7s1.3,1,1.8,1.7c0.4,0.7,0.7,1.5,0.9,2.3s0.2,1.6,0.2,2.4h-9.3c0,0.5,0,1.1,0.2,1.5s0.4,0.9,0.7,1.3
			c0.3,0.4,0.7,0.7,1.2,0.9c0.5,0.2,1.1,0.3,1.8,0.3c0.9,0,1.6-0.2,2.1-0.6c0.6-0.4,0.9-1,1.1-1.8h2C43.4,64.9,42.8,66,41.9,66.7z
			 M41.4,58.7c-0.2-0.4-0.4-0.8-0.7-1.1c-0.3-0.3-0.7-0.6-1.1-0.7c-0.4-0.2-0.9-0.3-1.4-0.3c-0.5,0-1,0.1-1.4,0.3
			c-0.4,0.2-0.8,0.4-1.1,0.8c-0.3,0.3-0.5,0.7-0.7,1.1c-0.2,0.4-0.3,0.9-0.3,1.4h7.1C41.7,59.6,41.6,59.2,41.4,58.7z"/>
		<path class="st0" d="M57,67.4c-0.4,0.2-0.8,0.3-1.5,0.3c-0.5,0-0.9-0.1-1.3-0.4s-0.5-0.8-0.5-1.5c-0.6,0.7-1.2,1.2-2,1.5
			c-0.7,0.3-1.5,0.4-2.4,0.4c-0.6,0-1.1-0.1-1.6-0.2s-0.9-0.3-1.3-0.6c-0.4-0.3-0.7-0.6-0.9-1.1s-0.3-1-0.3-1.6
			c0-0.7,0.1-1.3,0.4-1.7c0.2-0.4,0.6-0.8,0.9-1.1s0.8-0.5,1.3-0.6c0.5-0.1,1-0.3,1.5-0.4c0.6-0.1,1.1-0.2,1.6-0.3
			c0.5-0.1,0.9-0.1,1.3-0.2c0.4-0.1,0.7-0.3,0.9-0.5s0.3-0.5,0.3-0.9c0-0.4-0.1-0.8-0.3-1.1c-0.2-0.3-0.4-0.5-0.6-0.6
			c-0.3-0.1-0.6-0.2-0.9-0.3c-0.3,0-0.7-0.1-1-0.1c-0.9,0-1.6,0.2-2.2,0.5c-0.6,0.3-0.9,0.9-0.9,1.9h-2c0-0.8,0.2-1.4,0.5-1.9
			c0.3-0.5,0.7-1,1.2-1.3c0.5-0.3,1-0.6,1.6-0.7c0.6-0.1,1.3-0.2,2-0.2c0.6,0,1.1,0,1.7,0.1c0.6,0.1,1.1,0.2,1.5,0.5
			c0.4,0.2,0.8,0.6,1.1,1c0.3,0.4,0.4,1,0.4,1.7v6.4c0,0.5,0,0.8,0.1,1.1s0.2,0.3,0.6,0.3c0.2,0,0.4,0,0.6-0.1V67.4z M53.7,61.1
			c-0.3,0.2-0.6,0.3-1,0.4c-0.4,0.1-0.9,0.2-1.3,0.2c-0.5,0.1-0.9,0.1-1.4,0.2c-0.5,0.1-0.9,0.2-1.2,0.3c-0.4,0.2-0.7,0.4-0.9,0.7
			c-0.2,0.3-0.3,0.7-0.3,1.2c0,0.3,0.1,0.6,0.2,0.8c0.1,0.2,0.3,0.4,0.5,0.6c0.2,0.1,0.5,0.2,0.8,0.3c0.3,0.1,0.6,0.1,0.9,0.1
			c0.7,0,1.2-0.1,1.7-0.3s0.9-0.4,1.2-0.7c0.3-0.3,0.5-0.6,0.7-0.9c0.1-0.3,0.2-0.6,0.2-0.9V61.1z"/>
		<path class="st0" d="M60.7,55.1v2.6h0c0.5-1,1.1-1.8,1.8-2.2c0.7-0.5,1.6-0.7,2.7-0.7V57c-0.8,0-1.5,0.1-2.1,0.3
			c-0.6,0.2-1,0.6-1.4,1c-0.4,0.4-0.6,1-0.8,1.6c-0.2,0.6-0.2,1.3-0.2,2.1v5.5h-2V55.1H60.7z"/>
		<path class="st0" d="M73.9,57.2c-0.5-0.4-1.2-0.6-2.1-0.6c-0.7,0-1.4,0.1-1.8,0.4c-0.5,0.3-0.9,0.6-1.2,1.1
			c-0.3,0.4-0.5,1-0.6,1.5c-0.1,0.6-0.2,1.2-0.2,1.8c0,0.6,0.1,1.1,0.2,1.7c0.1,0.5,0.3,1,0.6,1.5c0.3,0.4,0.7,0.8,1.1,1
			c0.5,0.3,1,0.4,1.7,0.4c1,0,1.8-0.3,2.4-0.8c0.6-0.5,0.9-1.3,1-2.2h2.1c-0.2,1.5-0.8,2.7-1.7,3.6c-0.9,0.8-2.2,1.2-3.8,1.2
			c-0.9,0-1.8-0.2-2.5-0.5c-0.7-0.3-1.3-0.7-1.8-1.3c-0.5-0.6-0.9-1.2-1.1-2c-0.2-0.8-0.4-1.6-0.4-2.6s0.1-1.8,0.4-2.6
			c0.2-0.8,0.6-1.5,1.1-2.1c0.5-0.6,1.1-1.1,1.8-1.4s1.6-0.5,2.6-0.5c0.7,0,1.4,0.1,2,0.3c0.6,0.2,1.2,0.4,1.6,0.8
			c0.5,0.4,0.9,0.8,1.2,1.3c0.3,0.5,0.5,1.2,0.6,1.9h-2.1C74.7,58.3,74.4,57.7,73.9,57.2z"/>
		<path class="st0" d="M81.4,50.4v6.6h0c0.2-0.4,0.4-0.7,0.7-1c0.3-0.3,0.6-0.5,1-0.6s0.7-0.3,1.1-0.4s0.8-0.1,1.1-0.1
			c0.8,0,1.5,0.1,2,0.3c0.5,0.2,1,0.5,1.3,0.9s0.6,0.9,0.7,1.4c0.1,0.6,0.2,1.2,0.2,1.8v8.2h-2v-8.4c0-0.8-0.2-1.4-0.7-1.8
			c-0.4-0.4-1.1-0.7-1.8-0.7c-0.6,0-1.2,0.1-1.6,0.3c-0.5,0.2-0.8,0.5-1.1,0.8c-0.3,0.4-0.5,0.8-0.7,1.2c-0.2,0.5-0.2,1-0.2,1.5v7
			h-2V50.4H81.4z"/>
	</g>
</g>
</svg>
